<?xml version="1.0" standalone="no"?>
<!DOCTYPE svg PUBLIC "-//W3C//DTD SVG 1.1//EN"
"http://www.w3.org/Graphics/SVG/1.1/DTD/svg11.dtd">
<svg xmlns:ns0="http://www.w3.org/2000/svg" xmlns:ns1="http://www.inkscape.org/namespaces/inkscape" xmlns:ns2="http://sodipodi.sourceforge.net/DTD/sodipodi-0.dtd" width="150" height="150" version="1.1" xmlns="http://www.w3.org/2000/svg"><rect x="0" y="0" width="150" height="150" fill="#FFFFFF" /><g transform="translate( 20.689655172413794 20.689655172413794 ) scale(0.5172413793103449)"><ns0:path id="rect3011-7-9" style="fill:#000000;fill-opacity:1;stroke:#000000;stroke-width:0;stroke-miterlimit:4;stroke-opacity:1;stroke-dasharray:none" d="m 60,50.093748 10,0 0,10 -10,0 z m 0,-9.999998 10,0 0,9.999999 -10,0 z m -60,20 19.999999,10e-7 0,9.999999 -9.874999,0 c 0,0 -4.75,0.75 -7.75,-2.25 -3,-3 -2.375,-7.75 -2.375,-7.75 z m 19.999998,10e-7 10,0 0,9.999999 -10,0 z m 30.000004,0 0.190938,0 c 0,0 4.621122,0.409274 7.366198,-2.114278 C 60.234533,55.51814 60,50.34375 60,50.34375 l 10e-7,19.75 -9.999999,0 z m -20.000003,0 10.000001,0 0,9.999999 -10.000001,0 z m 10,0 10,0 0,9.999999 -10,0 z M 60,60.09375 l 10,10e-7 c 0,0 0.333657,5.091884 -2.28125,7.656249 C 64.947925,70.46727 60,70.09375 60,70.09375 z M 0,50.093748 l 10,0 c 0,0 -0.046052,5.167962 2.5,7.625002 2.669593,2.576262 7.5,2.375 7.5,2.375 l -10,0 -10,0 z m 0,-9.999998 10,0 0,9.999999 -10,0 z m 0,-10.000002 10,0 0,9.999999 -10,0 z m 0,-10.000001 10,3e-6 0,9.999997 -10,0 z m 0,-9.999997 10,0 0,10 -10,-1e-6 z M 2.276,2.5686238 C 5.1559502,-0.33068394 10,0.09375 10,0.09375 l 0,9.999999 -10,0 c 0,0 -0.31363978,-4.9180794 2.276,-7.5251252 z M 10,0.09375 l 9.999999,0 0,9.999999 1e-6,10e-7 c 0,0 -5.135076,-0.03067 -7.698223,2.572303 C 9.5804661,15.42965 10,20.09375 10,20.09375 z m 9.999998,0 10,0 0,9.999999 L 20,10.09375 z M 60,30.093748 l 10,0 0,9.999999 -10,0 z m 0,-10.000001 10,0 0,10 -10,0 z m 0,-9.999997 10,0 0,9.999999 -10,0 z m -9.999998,-10 9.999999,0 0,9.999999 -9.999999,0 z m -20.000003,0 10.000001,0 0,9.999999 -10.000001,0 z m 10,0 10,0 0,9.999999 -10,0 z m 20.000001,0 10,0 0,9.999999 -10,0 z" ns1:connector-curvature="0" ns2:nodetypes="ccccccccccccccsccccccccccsccccccccccccscccscccccscccccccccccccccccccccccsccssccccscccccccccccccccccccccccccccccccccccccccc" />
</g><g transform="translate( 67.24137931034483 20.689655172413794 ) rotate(180, 2.586206896551724, 2.586206896551724) scale(0.5172413793103449)"><ns0:path style="fill:#000000;fill-opacity:1;stroke:none" d="M -5e-8,-1 10,-1 10,3.26039 10,6.73961 C 10,8.545866 8.545866,10 6.7396099,10 L 3.26039,10 C 1.4541339,10 -5.0000001e-8,8.545866 -5.0000001e-8,6.73961 l 0,-3.47922 C -5.0000001e-8,1.454134 -5e-8,-1 -5e-8,-1 z" id="rect2984" ns1:connector-curvature="0" ns2:nodetypes="cccsssssc" />
</g><g transform="translate( 77.58620689655173 20.689655172413794 ) rotate(180, 2.586206896551724, 2.586206896551724) scale(0.5172413793103449)"><ns0:path id="rect2985" style="fill:#000000;fill-opacity:1;stroke:none" d="M 1.1920929e-7,-1 10,-1 10,0 1.1920929e-7,0 z M -1,0 10,0 10,3.26039 10,6.73961 C 10,8.545866 8.545866,10 6.7396099,10 L 3.26039,10 -1,10 -1,3.26039 z" />
</g><g transform="translate( 82.75862068965517 20.689655172413794 ) rotate(270, 2.586206896551724, 2.586206896551724) scale(0.5172413793103449)"><ns0:path style="fill:#000000;fill-opacity:1;stroke:none" d="M -5e-8,-1 10,-1 10,3.26039 10,6.73961 C 10,8.545866 8.545866,10 6.7396099,10 L 3.26039,10 C 1.4541339,10 -5.0000001e-8,8.545866 -5.0000001e-8,6.73961 l 0,-3.47922 C -5.0000001e-8,1.454134 -5e-8,-1 -5e-8,-1 z" id="rect2984" ns1:connector-curvature="0" ns2:nodetypes="cccsssssc" />
</g><g transform="translate( 93.10344827586208 20.689655172413794 ) scale(0.5172413793103449)"><ns0:path id="rect3011-7-9" style="fill:#000000;fill-opacity:1;stroke:#000000;stroke-width:0;stroke-miterlimit:4;stroke-opacity:1;stroke-dasharray:none" d="m 60,50.093748 10,0 0,10 -10,0 z m 0,-9.999998 10,0 0,9.999999 -10,0 z m -60,20 19.999999,10e-7 0,9.999999 -9.874999,0 c 0,0 -4.75,0.75 -7.75,-2.25 -3,-3 -2.375,-7.75 -2.375,-7.75 z m 19.999998,10e-7 10,0 0,9.999999 -10,0 z m 30.000004,0 0.190938,0 c 0,0 4.621122,0.409274 7.366198,-2.114278 C 60.234533,55.51814 60,50.34375 60,50.34375 l 10e-7,19.75 -9.999999,0 z m -20.000003,0 10.000001,0 0,9.999999 -10.000001,0 z m 10,0 10,0 0,9.999999 -10,0 z M 60,60.09375 l 10,10e-7 c 0,0 0.333657,5.091884 -2.28125,7.656249 C 64.947925,70.46727 60,70.09375 60,70.09375 z M 0,50.093748 l 10,0 c 0,0 -0.046052,5.167962 2.5,7.625002 2.669593,2.576262 7.5,2.375 7.5,2.375 l -10,0 -10,0 z m 0,-9.999998 10,0 0,9.999999 -10,0 z m 0,-10.000002 10,0 0,9.999999 -10,0 z m 0,-10.000001 10,3e-6 0,9.999997 -10,0 z m 0,-9.999997 10,0 0,10 -10,-1e-6 z M 2.276,2.5686238 C 5.1559502,-0.33068394 10,0.09375 10,0.09375 l 0,9.999999 -10,0 c 0,0 -0.31363978,-4.9180794 2.276,-7.5251252 z M 10,0.09375 l 9.999999,0 0,9.999999 1e-6,10e-7 c 0,0 -5.135076,-0.03067 -7.698223,2.572303 C 9.5804661,15.42965 10,20.09375 10,20.09375 z m 9.999998,0 10,0 0,9.999999 L 20,10.09375 z M 60,30.093748 l 10,0 0,9.999999 -10,0 z m 0,-10.000001 10,0 0,10 -10,0 z m 0,-9.999997 10,0 0,9.999999 -10,0 z m -9.999998,-10 9.999999,0 0,9.999999 -9.999999,0 z m -20.000003,0 10.000001,0 0,9.999999 -10.000001,0 z m 10,0 10,0 0,9.999999 -10,0 z m 20.000001,0 10,0 0,9.999999 -10,0 z" ns1:connector-curvature="0" ns2:nodetypes="ccccccccccccccsccccccccccsccccccccccccscccscccccscccccccccccccccccccccccsccssccccscccccccccccccccccccccccccccccccccccccccc" />
</g><g transform="translate( 62.06896551724138 25.862068965517242 ) rotate(180, 2.586206896551724, 2.586206896551724) scale(0.5172413793103449)"><ns0:path id="rect2985" style="fill:#000000;fill-opacity:1;stroke:none" d="M 1.1920929e-7,-1 10,-1 10,0 1.1920929e-7,0 z M -1,0 10,0 10,3.26039 10,6.73961 C 10,8.545866 8.545866,10 6.7396099,10 L 3.26039,10 -1,10 -1,3.26039 z" />
</g><g transform="translate( 67.24137931034483 25.862068965517242 ) rotate(270, 2.586206896551724, 2.586206896551724) scale(0.5172413793103449)"><ns0:path id="rect2982-0-6" transform="matrix(0,1,-1,0,0,0)" style="fill:#000000;fill-opacity:1;stroke:#000000;stroke-width:0;stroke-linecap:butt;stroke-linejoin:miter;stroke-miterlimit:4;stroke-opacity:1" d="m 0,-11 10,0 0,1 -10,0 z M -0.95762712,3.7252903e-8 -0.95762712,-10 l 1,0 0,10.000000037252901 z M 10,1 0,1 0,0 10,0 z M 0,0 l 0,-10 10,0 0,10 z" />
</g><g transform="translate( 77.58620689655173 25.862068965517242 ) scale(0.5172413793103449)"><ns0:path style="fill:#000000;fill-opacity:1;stroke:none" d="M -5e-8,-1 10,-1 10,3.26039 10,6.73961 C 10,8.545866 8.545866,10 6.7396099,10 L 3.26039,10 C 1.4541339,10 -5.0000001e-8,8.545866 -5.0000001e-8,6.73961 l 0,-3.47922 C -5.0000001e-8,1.454134 -5e-8,-1 -5e-8,-1 z" id="rect2984" ns1:connector-curvature="0" ns2:nodetypes="cccsssssc" />
</g><g transform="translate( 31.03448275862069 31.03448275862069 ) scale(0.5172413793103449)"><ns0:path style="fill:#000000;fill-opacity:1;stroke:none" d="M 0.05249009,0 15,3 29.94751,0 C 29.976021,-0.00572216 30,0.02341058 30,0.05249009 L 27,15 30,29.94751 C 30.005722,29.97602 29.976589,30 29.94751,30 L 15,27 0.05249009,30 C 0.02397908,30.005722 0,29.976589 0,29.94751 L 3,15 0,0.05249009 C -0.00572221,0.02397915 0.02341058,0 0.05249009,0 z" id="rect2993" ns1:connector-curvature="0" ns2:nodetypes="scsscsscsscss" />
</g><g transform="translate( 62.06896551724138 31.03448275862069 ) rotate(90, 2.586206896551724, 2.586206896551724) scale(0.5172413793103449)"><ns0:path id="rect2985" style="fill:#000000;fill-opacity:1;stroke:none" d="M 1.1920929e-7,-1 10,-1 10,0 1.1920929e-7,0 z M -1,0 10,0 10,3.26039 10,6.73961 C 10,8.545866 8.545866,10 6.7396099,10 L 3.26039,10 -1,10 -1,3.26039 z" />
</g><g transform="translate( 67.24137931034483 31.03448275862069 ) rotate(270, 2.586206896551724, 2.586206896551724) scale(0.5172413793103449)"><ns0:path id="rect2982-0-6" transform="matrix(0,1,-1,0,0,0)" style="fill:#000000;fill-opacity:1;stroke:#000000;stroke-width:0;stroke-linecap:butt;stroke-linejoin:miter;stroke-miterlimit:4;stroke-opacity:1" d="m 0,-11 10,0 0,1 -10,0 z M -0.95762712,3.7252903e-8 -0.95762712,-10 l 1,0 0,10.000000037252901 z M 10,1 0,1 0,0 10,0 z M 0,0 l 0,-10 10,0 0,10 z" />
</g><g transform="translate( 82.75862068965517 31.03448275862069 ) scale(0.5172413793103449)"><ns0:rect style="fill:#000000;fill-opacity:1;stroke:none" id="rect2984" width="10" height="10" x="-5.0000001e-08" y="0" ry="3.26039" />
</g><g transform="translate( 103.44827586206897 31.03448275862069 ) scale(0.5172413793103449)"><ns0:path style="fill:#000000;fill-opacity:1;stroke:none" d="M 0.05249009,0 15,3 29.94751,0 C 29.976021,-0.00572216 30,0.02341058 30,0.05249009 L 27,15 30,29.94751 C 30.005722,29.97602 29.976589,30 29.94751,30 L 15,27 0.05249009,30 C 0.02397908,30.005722 0,29.976589 0,29.94751 L 3,15 0,0.05249009 C -0.00572221,0.02397915 0.02341058,0 0.05249009,0 z" id="rect2993" ns1:connector-curvature="0" ns2:nodetypes="scsscsscsscss" />
</g><g transform="translate( 67.24137931034483 36.20689655172414 ) scale(0.5172413793103449)"><ns0:path style="fill:#000000;fill-opacity:1;stroke:none" d="M -5e-8,-1 10,-1 10,3.26039 10,6.73961 C 10,8.545866 8.545866,10 6.7396099,10 L 3.26039,10 C 1.4541339,10 -5.0000001e-8,8.545866 -5.0000001e-8,6.73961 l 0,-3.47922 C -5.0000001e-8,1.454134 -5e-8,-1 -5e-8,-1 z" id="rect2984" ns1:connector-curvature="0" ns2:nodetypes="cccsssssc" />
</g><g transform="translate( 77.58620689655173 36.20689655172414 ) scale(0.5172413793103449)"><ns0:rect style="fill:#000000;fill-opacity:1;stroke:none" id="rect2984" width="10" height="10" x="-5.0000001e-08" y="0" ry="3.26039" />
</g><g transform="translate( 62.06896551724138 41.37931034482759 ) rotate(180, 2.586206896551724, 2.586206896551724) scale(0.5172413793103449)"><ns0:path style="fill:#000000;fill-opacity:1;stroke:none" d="M -5e-8,-1 10,-1 10,3.26039 10,6.73961 C 10,8.545866 8.545866,10 6.7396099,10 L 3.26039,10 C 1.4541339,10 -5.0000001e-8,8.545866 -5.0000001e-8,6.73961 l 0,-3.47922 C -5.0000001e-8,1.454134 -5e-8,-1 -5e-8,-1 z" id="rect2984" ns1:connector-curvature="0" ns2:nodetypes="cccsssssc" />
</g><g transform="translate( 82.75862068965517 41.37931034482759 ) rotate(180, 2.586206896551724, 2.586206896551724) scale(0.5172413793103449)"><ns0:path style="fill:#000000;fill-opacity:1;stroke:none" d="M -5e-8,-1 10,-1 10,3.26039 10,6.73961 C 10,8.545866 8.545866,10 6.7396099,10 L 3.26039,10 C 1.4541339,10 -5.0000001e-8,8.545866 -5.0000001e-8,6.73961 l 0,-3.47922 C -5.0000001e-8,1.454134 -5e-8,-1 -5e-8,-1 z" id="rect2984" ns1:connector-curvature="0" ns2:nodetypes="cccsssssc" />
</g><g transform="translate( 62.06896551724138 46.55172413793103 ) scale(0.5172413793103449)"><ns0:path id="rect3750-9" style="fill:#000000;fill-opacity:1;stroke:#000000;stroke-width:0;stroke-linecap:butt;stroke-linejoin:miter;stroke-miterlimit:4;stroke-opacity:1" d="m 0,9.9661016 10,0 0,1.0000004 -10,0 z M 3.394434e-7,-0.97457618 10,-0.97457618 l 0,1 -9.9999996605566,0 z M 0,0 10,0 10,10 0,10 z" />
</g><g transform="translate( 77.58620689655173 46.55172413793103 ) rotate(90, 2.586206896551724, 2.586206896551724) scale(0.5172413793103449)"><ns0:path style="fill:#000000;fill-opacity:1;stroke:none" d="M -5e-8,-1 10,-1 10,3.26039 10,6.73961 C 10,8.545866 8.545866,10 6.7396099,10 L 3.26039,10 C 1.4541339,10 -5.0000001e-8,8.545866 -5.0000001e-8,6.73961 l 0,-3.47922 C -5.0000001e-8,1.454134 -5e-8,-1 -5e-8,-1 z" id="rect2984" ns1:connector-curvature="0" ns2:nodetypes="cccsssssc" />
</g><g transform="translate( 82.75862068965517 46.55172413793103 ) rotate(270, 2.586206896551724, 2.586206896551724) scale(0.5172413793103449)"><ns0:path id="rect2982-0-6" transform="matrix(0,1,-1,0,0,0)" style="fill:#000000;fill-opacity:1;stroke:#000000;stroke-width:0;stroke-linecap:butt;stroke-linejoin:miter;stroke-miterlimit:4;stroke-opacity:1" d="m 0,-11 10,0 0,1 -10,0 z M -0.95762712,3.7252903e-8 -0.95762712,-10 l 1,0 0,10.000000037252901 z M 10,1 0,1 0,0 10,0 z M 0,0 l 0,-10 10,0 0,10 z" />
</g><g transform="translate( 62.06896551724138 51.724137931034484 ) scale(0.5172413793103449)"><ns0:path id="rect3750-9" style="fill:#000000;fill-opacity:1;stroke:#000000;stroke-width:0;stroke-linecap:butt;stroke-linejoin:miter;stroke-miterlimit:4;stroke-opacity:1" d="m 0,9.9661016 10,0 0,1.0000004 -10,0 z M 3.394434e-7,-0.97457618 10,-0.97457618 l 0,1 -9.9999996605566,0 z M 0,0 10,0 10,10 0,10 z" />
</g><g transform="translate( 72.41379310344828 51.724137931034484 ) rotate(180, 2.586206896551724, 2.586206896551724) scale(0.5172413793103449)"><ns0:path style="fill:#000000;fill-opacity:1;stroke:none" d="M -5e-8,-1 10,-1 10,3.26039 10,6.73961 C 10,8.545866 8.545866,10 6.7396099,10 L 3.26039,10 C 1.4541339,10 -5.0000001e-8,8.545866 -5.0000001e-8,6.73961 l 0,-3.47922 C -5.0000001e-8,1.454134 -5e-8,-1 -5e-8,-1 z" id="rect2984" ns1:connector-curvature="0" ns2:nodetypes="cccsssssc" />
</g><g transform="translate( 82.75862068965517 51.724137931034484 ) scale(0.5172413793103449)"><ns0:path id="rect3750-9" style="fill:#000000;fill-opacity:1;stroke:#000000;stroke-width:0;stroke-linecap:butt;stroke-linejoin:miter;stroke-miterlimit:4;stroke-opacity:1" d="m 0,9.9661016 10,0 0,1.0000004 -10,0 z M 3.394434e-7,-0.97457618 10,-0.97457618 l 0,1 -9.9999996605566,0 z M 0,0 10,0 10,10 0,10 z" />
</g><g transform="translate( 62.06896551724138 56.896551724137936 ) rotate(90, 2.586206896551724, 2.586206896551724) scale(0.5172413793103449)"><ns0:path id="rect2985" style="fill:#000000;fill-opacity:1;stroke:none" d="M 1.1920929e-7,-1 10,-1 10,0 1.1920929e-7,0 z M -1,0 10,0 10,3.26039 10,6.73961 C 10,8.545866 8.545866,10 6.7396099,10 L 3.26039,10 -1,10 -1,3.26039 z" />
</g><g transform="translate( 67.24137931034483 56.896551724137936 ) rotate(180, 2.586206896551724, 2.586206896551724) scale(0.5172413793103449)"><ns0:path id="rect2982-0-6" transform="matrix(0,1,-1,0,0,0)" style="fill:#000000;fill-opacity:1;stroke:#000000;stroke-width:0;stroke-linecap:butt;stroke-linejoin:miter;stroke-miterlimit:4;stroke-opacity:1" d="m 0,-11 10,0 0,1 -10,0 z M -0.95762712,3.7252903e-8 -0.95762712,-10 l 1,0 0,10.000000037252901 z M 10,1 0,1 0,0 10,0 z M 0,0 l 0,-10 10,0 0,10 z" />
</g><g transform="translate( 72.41379310344828 56.896551724137936 ) scale(0.5172413793103449)"><ns0:path id="rect2982" style="fill:#000000;fill-opacity:1;stroke:#000000;stroke-width:0;stroke-linecap:butt;stroke-linejoin:miter;stroke-miterlimit:4;stroke-opacity:1" d="m -3.5762787e-7,9.9576273 9.99999995762787,0 0,0.9999997 -9.99999995762787,0 z M 11,0 11,10 10,10 10,0 z M -3.7252903e-8,-0.95762712 10,-0.95762712 l 0,1 -10.000000037252901,0 z M -1,10 -1,0 0,0 0,10 z M 0,0 10,0 10,10 0,10 z" />
</g><g transform="translate( 77.58620689655173 56.896551724137936 ) rotate(90, 2.586206896551724, 2.586206896551724) scale(0.5172413793103449)"><ns0:path id="rect3750-9" style="fill:#000000;fill-opacity:1;stroke:#000000;stroke-width:0;stroke-linecap:butt;stroke-linejoin:miter;stroke-miterlimit:4;stroke-opacity:1" d="m 0,9.9661016 10,0 0,1.0000004 -10,0 z M 3.394434e-7,-0.97457618 10,-0.97457618 l 0,1 -9.9999996605566,0 z M 0,0 10,0 10,10 0,10 z" />
</g><g transform="translate( 82.75862068965517 56.896551724137936 ) scale(0.5172413793103449)"><ns0:path id="rect2985" style="fill:#000000;fill-opacity:1;stroke:none" d="M 1.1920929e-7,-1 10,-1 10,0 1.1920929e-7,0 z M -1,0 10,0 10,3.26039 10,6.73961 C 10,8.545866 8.545866,10 6.7396099,10 L 3.26039,10 -1,10 -1,3.26039 z" />
</g><g transform="translate( 20.689655172413794 62.06896551724138 ) rotate(90, 2.586206896551724, 2.586206896551724) scale(0.5172413793103449)"><ns0:path style="fill:#000000;fill-opacity:1;stroke:none" d="M -5e-8,-1 10,-1 10,3.26039 10,6.73961 C 10,8.545866 8.545866,10 6.7396099,10 L 3.26039,10 C 1.4541339,10 -5.0000001e-8,8.545866 -5.0000001e-8,6.73961 l 0,-3.47922 C -5.0000001e-8,1.454134 -5e-8,-1 -5e-8,-1 z" id="rect2984" ns1:connector-curvature="0" ns2:nodetypes="cccsssssc" />
</g><g transform="translate( 25.862068965517242 62.06896551724138 ) rotate(270, 2.586206896551724, 2.586206896551724) scale(0.5172413793103449)"><ns0:path id="rect2985" style="fill:#000000;fill-opacity:1;stroke:none" d="M 1.1920929e-7,-1 10,-1 10,0 1.1920929e-7,0 z M -1,0 10,0 10,3.26039 10,6.73961 C 10,8.545866 8.545866,10 6.7396099,10 L 3.26039,10 -1,10 -1,3.26039 z" />
</g><g transform="translate( 36.20689655172414 62.06896551724138 ) rotate(180, 2.586206896551724, 2.586206896551724) scale(0.5172413793103449)"><ns0:path style="fill:#000000;fill-opacity:1;stroke:none" d="M -5e-8,-1 10,-1 10,3.26039 10,6.73961 C 10,8.545866 8.545866,10 6.7396099,10 L 3.26039,10 C 1.4541339,10 -5.0000001e-8,8.545866 -5.0000001e-8,6.73961 l 0,-3.47922 C -5.0000001e-8,1.454134 -5e-8,-1 -5e-8,-1 z" id="rect2984" ns1:connector-curvature="0" ns2:nodetypes="cccsssssc" />
</g><g transform="translate( 51.724137931034484 62.06896551724138 ) rotate(90, 2.586206896551724, 2.586206896551724) scale(0.5172413793103449)"><ns0:path style="fill:#000000;fill-opacity:1;stroke:none" d="M -5e-8,-1 10,-1 10,3.26039 10,6.73961 C 10,8.545866 8.545866,10 6.7396099,10 L 3.26039,10 C 1.4541339,10 -5.0000001e-8,8.545866 -5.0000001e-8,6.73961 l 0,-3.47922 C -5.0000001e-8,1.454134 -5e-8,-1 -5e-8,-1 z" id="rect2984" ns1:connector-curvature="0" ns2:nodetypes="cccsssssc" />
</g><g transform="translate( 56.896551724137936 62.06896551724138 ) rotate(270, 2.586206896551724, 2.586206896551724) scale(0.5172413793103449)"><ns0:path style="fill:#000000;fill-opacity:1;stroke:none" d="M -5e-8,-1 10,-1 10,3.26039 10,6.73961 C 10,8.545866 8.545866,10 6.7396099,10 L 3.26039,10 C 1.4541339,10 -5.0000001e-8,8.545866 -5.0000001e-8,6.73961 l 0,-3.47922 C -5.0000001e-8,1.454134 -5e-8,-1 -5e-8,-1 z" id="rect2984" ns1:connector-curvature="0" ns2:nodetypes="cccsssssc" />
</g><g transform="translate( 67.24137931034483 62.06896551724138 ) rotate(90, 2.586206896551724, 2.586206896551724) scale(0.5172413793103449)"><ns0:path id="rect2982-0-6" transform="matrix(0,1,-1,0,0,0)" style="fill:#000000;fill-opacity:1;stroke:#000000;stroke-width:0;stroke-linecap:butt;stroke-linejoin:miter;stroke-miterlimit:4;stroke-opacity:1" d="m 0,-11 10,0 0,1 -10,0 z M -0.95762712,3.7252903e-8 -0.95762712,-10 l 1,0 0,10.000000037252901 z M 10,1 0,1 0,0 10,0 z M 0,0 l 0,-10 10,0 0,10 z" />
</g><g transform="translate( 72.41379310344828 62.06896551724138 ) scale(0.5172413793103449)"><ns0:path id="rect2985" style="fill:#000000;fill-opacity:1;stroke:none" d="M 1.1920929e-7,-1 10,-1 10,0 1.1920929e-7,0 z M -1,0 10,0 10,3.26039 10,6.73961 C 10,8.545866 8.545866,10 6.7396099,10 L 3.26039,10 -1,10 -1,3.26039 z" />
</g><g transform="translate( 93.10344827586208 62.06896551724138 ) rotate(180, 2.586206896551724, 2.586206896551724) scale(0.5172413793103449)"><ns0:path id="rect2985" style="fill:#000000;fill-opacity:1;stroke:none" d="M 1.1920929e-7,-1 10,-1 10,0 1.1920929e-7,0 z M -1,0 10,0 10,3.26039 10,6.73961 C 10,8.545866 8.545866,10 6.7396099,10 L 3.26039,10 -1,10 -1,3.26039 z" />
</g><g transform="translate( 98.27586206896552 62.06896551724138 ) rotate(180, 2.586206896551724, 2.586206896551724) scale(0.5172413793103449)"><ns0:path id="rect2982-0-6" transform="matrix(0,1,-1,0,0,0)" style="fill:#000000;fill-opacity:1;stroke:#000000;stroke-width:0;stroke-linecap:butt;stroke-linejoin:miter;stroke-miterlimit:4;stroke-opacity:1" d="m 0,-11 10,0 0,1 -10,0 z M -0.95762712,3.7252903e-8 -0.95762712,-10 l 1,0 0,10.000000037252901 z M 10,1 0,1 0,0 10,0 z M 0,0 l 0,-10 10,0 0,10 z" />
</g><g transform="translate( 103.44827586206897 62.06896551724138 ) rotate(270, 2.586206896551724, 2.586206896551724) scale(0.5172413793103449)"><ns0:path id="rect2985" style="fill:#000000;fill-opacity:1;stroke:none" d="M 1.1920929e-7,-1 10,-1 10,0 1.1920929e-7,0 z M -1,0 10,0 10,3.26039 10,6.73961 C 10,8.545866 8.545866,10 6.7396099,10 L 3.26039,10 -1,10 -1,3.26039 z" />
</g><g transform="translate( 113.79310344827586 62.06896551724138 ) rotate(90, 2.586206896551724, 2.586206896551724) scale(0.5172413793103449)"><ns0:path style="fill:#000000;fill-opacity:1;stroke:none" d="M -5e-8,-1 10,-1 10,3.26039 10,6.73961 C 10,8.545866 8.545866,10 6.7396099,10 L 3.26039,10 C 1.4541339,10 -5.0000001e-8,8.545866 -5.0000001e-8,6.73961 l 0,-3.47922 C -5.0000001e-8,1.454134 -5e-8,-1 -5e-8,-1 z" id="rect2984" ns1:connector-curvature="0" ns2:nodetypes="cccsssssc" />
</g><g transform="translate( 118.96551724137932 62.06896551724138 ) rotate(270, 2.586206896551724, 2.586206896551724) scale(0.5172413793103449)"><ns0:path id="rect2985" style="fill:#000000;fill-opacity:1;stroke:none" d="M 1.1920929e-7,-1 10,-1 10,0 1.1920929e-7,0 z M -1,0 10,0 10,3.26039 10,6.73961 C 10,8.545866 8.545866,10 6.7396099,10 L 3.26039,10 -1,10 -1,3.26039 z" />
</g><g transform="translate( 25.862068965517242 67.24137931034483 ) rotate(90, 2.586206896551724, 2.586206896551724) scale(0.5172413793103449)"><ns0:path id="rect2982-0-6" transform="matrix(0,1,-1,0,0,0)" style="fill:#000000;fill-opacity:1;stroke:#000000;stroke-width:0;stroke-linecap:butt;stroke-linejoin:miter;stroke-miterlimit:4;stroke-opacity:1" d="m 0,-11 10,0 0,1 -10,0 z M -0.95762712,3.7252903e-8 -0.95762712,-10 l 1,0 0,10.000000037252901 z M 10,1 0,1 0,0 10,0 z M 0,0 l 0,-10 10,0 0,10 z" />
</g><g transform="translate( 31.03448275862069 67.24137931034483 ) rotate(90, 2.586206896551724, 2.586206896551724) scale(0.5172413793103449)"><ns0:path id="rect3750-9" style="fill:#000000;fill-opacity:1;stroke:#000000;stroke-width:0;stroke-linecap:butt;stroke-linejoin:miter;stroke-miterlimit:4;stroke-opacity:1" d="m 0,9.9661016 10,0 0,1.0000004 -10,0 z M 3.394434e-7,-0.97457618 10,-0.97457618 l 0,1 -9.9999996605566,0 z M 0,0 10,0 10,10 0,10 z" />
</g><g transform="translate( 36.20689655172414 67.24137931034483 ) scale(0.5172413793103449)"><ns0:path id="rect2982" style="fill:#000000;fill-opacity:1;stroke:#000000;stroke-width:0;stroke-linecap:butt;stroke-linejoin:miter;stroke-miterlimit:4;stroke-opacity:1" d="m -3.5762787e-7,9.9576273 9.99999995762787,0 0,0.9999997 -9.99999995762787,0 z M 11,0 11,10 10,10 10,0 z M -3.7252903e-8,-0.95762712 10,-0.95762712 l 0,1 -10.000000037252901,0 z M -1,10 -1,0 0,0 0,10 z M 0,0 10,0 10,10 0,10 z" />
</g><g transform="translate( 41.37931034482759 67.24137931034483 ) rotate(270, 2.586206896551724, 2.586206896551724) scale(0.5172413793103449)"><ns0:path style="fill:#000000;fill-opacity:1;stroke:none" d="M -5e-8,-1 10,-1 10,3.26039 10,6.73961 C 10,8.545866 8.545866,10 6.7396099,10 L 3.26039,10 C 1.4541339,10 -5.0000001e-8,8.545866 -5.0000001e-8,6.73961 l 0,-3.47922 C -5.0000001e-8,1.454134 -5e-8,-1 -5e-8,-1 z" id="rect2984" ns1:connector-curvature="0" ns2:nodetypes="cccsssssc" />
</g><g transform="translate( 67.24137931034483 67.24137931034483 ) scale(0.5172413793103449)"><ns0:path id="rect3750-9" style="fill:#000000;fill-opacity:1;stroke:#000000;stroke-width:0;stroke-linecap:butt;stroke-linejoin:miter;stroke-miterlimit:4;stroke-opacity:1" d="m 0,9.9661016 10,0 0,1.0000004 -10,0 z M 3.394434e-7,-0.97457618 10,-0.97457618 l 0,1 -9.9999996605566,0 z M 0,0 10,0 10,10 0,10 z" />
</g><g transform="translate( 93.10344827586208 67.24137931034483 ) rotate(90, 2.586206896551724, 2.586206896551724) scale(0.5172413793103449)"><ns0:path id="rect2985" style="fill:#000000;fill-opacity:1;stroke:none" d="M 1.1920929e-7,-1 10,-1 10,0 1.1920929e-7,0 z M -1,0 10,0 10,3.26039 10,6.73961 C 10,8.545866 8.545866,10 6.7396099,10 L 3.26039,10 -1,10 -1,3.26039 z" />
</g><g transform="translate( 98.27586206896552 67.24137931034483 ) scale(0.5172413793103449)"><ns0:path id="rect2982" style="fill:#000000;fill-opacity:1;stroke:#000000;stroke-width:0;stroke-linecap:butt;stroke-linejoin:miter;stroke-miterlimit:4;stroke-opacity:1" d="m -3.5762787e-7,9.9576273 9.99999995762787,0 0,0.9999997 -9.99999995762787,0 z M 11,0 11,10 10,10 10,0 z M -3.7252903e-8,-0.95762712 10,-0.95762712 l 0,1 -10.000000037252901,0 z M -1,10 -1,0 0,0 0,10 z M 0,0 10,0 10,10 0,10 z" />
</g><g transform="translate( 103.44827586206897 67.24137931034483 ) scale(0.5172413793103449)"><ns0:path id="rect2985" style="fill:#000000;fill-opacity:1;stroke:none" d="M 1.1920929e-7,-1 10,-1 10,0 1.1920929e-7,0 z M -1,0 10,0 10,3.26039 10,6.73961 C 10,8.545866 8.545866,10 6.7396099,10 L 3.26039,10 -1,10 -1,3.26039 z" />
</g><g transform="translate( 118.96551724137932 67.24137931034483 ) rotate(90, 2.586206896551724, 2.586206896551724) scale(0.5172413793103449)"><ns0:path id="rect2985" style="fill:#000000;fill-opacity:1;stroke:none" d="M 1.1920929e-7,-1 10,-1 10,0 1.1920929e-7,0 z M -1,0 10,0 10,3.26039 10,6.73961 C 10,8.545866 8.545866,10 6.7396099,10 L 3.26039,10 -1,10 -1,3.26039 z" />
</g><g transform="translate( 124.13793103448276 67.24137931034483 ) rotate(270, 2.586206896551724, 2.586206896551724) scale(0.5172413793103449)"><ns0:path id="rect2985" style="fill:#000000;fill-opacity:1;stroke:none" d="M 1.1920929e-7,-1 10,-1 10,0 1.1920929e-7,0 z M -1,0 10,0 10,3.26039 10,6.73961 C 10,8.545866 8.545866,10 6.7396099,10 L 3.26039,10 -1,10 -1,3.26039 z" />
</g><g transform="translate( 25.862068965517242 72.41379310344828 ) scale(0.5172413793103449)"><ns0:path style="fill:#000000;fill-opacity:1;stroke:none" d="M -5e-8,-1 10,-1 10,3.26039 10,6.73961 C 10,8.545866 8.545866,10 6.7396099,10 L 3.26039,10 C 1.4541339,10 -5.0000001e-8,8.545866 -5.0000001e-8,6.73961 l 0,-3.47922 C -5.0000001e-8,1.454134 -5e-8,-1 -5e-8,-1 z" id="rect2984" ns1:connector-curvature="0" ns2:nodetypes="cccsssssc" />
</g><g transform="translate( 36.20689655172414 72.41379310344828 ) scale(0.5172413793103449)"><ns0:path style="fill:#000000;fill-opacity:1;stroke:none" d="M -5e-8,-1 10,-1 10,3.26039 10,6.73961 C 10,8.545866 8.545866,10 6.7396099,10 L 3.26039,10 C 1.4541339,10 -5.0000001e-8,8.545866 -5.0000001e-8,6.73961 l 0,-3.47922 C -5.0000001e-8,1.454134 -5e-8,-1 -5e-8,-1 z" id="rect2984" ns1:connector-curvature="0" ns2:nodetypes="cccsssssc" />
</g><g transform="translate( 51.724137931034484 72.41379310344828 ) rotate(90, 2.586206896551724, 2.586206896551724) scale(0.5172413793103449)"><ns0:path style="fill:#000000;fill-opacity:1;stroke:none" d="M -5e-8,-1 10,-1 10,3.26039 10,6.73961 C 10,8.545866 8.545866,10 6.7396099,10 L 3.26039,10 C 1.4541339,10 -5.0000001e-8,8.545866 -5.0000001e-8,6.73961 l 0,-3.47922 C -5.0000001e-8,1.454134 -5e-8,-1 -5e-8,-1 z" id="rect2984" ns1:connector-curvature="0" ns2:nodetypes="cccsssssc" />
</g><g transform="translate( 56.896551724137936 72.41379310344828 ) rotate(180, 2.586206896551724, 2.586206896551724) scale(0.5172413793103449)"><ns0:path id="rect2982-0-6" transform="matrix(0,1,-1,0,0,0)" style="fill:#000000;fill-opacity:1;stroke:#000000;stroke-width:0;stroke-linecap:butt;stroke-linejoin:miter;stroke-miterlimit:4;stroke-opacity:1" d="m 0,-11 10,0 0,1 -10,0 z M -0.95762712,3.7252903e-8 -0.95762712,-10 l 1,0 0,10.000000037252901 z M 10,1 0,1 0,0 10,0 z M 0,0 l 0,-10 10,0 0,10 z" />
</g><g transform="translate( 62.06896551724138 72.41379310344828 ) rotate(90, 2.586206896551724, 2.586206896551724) scale(0.5172413793103449)"><ns0:path id="rect3750-9" style="fill:#000000;fill-opacity:1;stroke:#000000;stroke-width:0;stroke-linecap:butt;stroke-linejoin:miter;stroke-miterlimit:4;stroke-opacity:1" d="m 0,9.9661016 10,0 0,1.0000004 -10,0 z M 3.394434e-7,-0.97457618 10,-0.97457618 l 0,1 -9.9999996605566,0 z M 0,0 10,0 10,10 0,10 z" />
</g><g transform="translate( 67.24137931034483 72.41379310344828 ) scale(0.5172413793103449)"><ns0:path id="rect2982" style="fill:#000000;fill-opacity:1;stroke:#000000;stroke-width:0;stroke-linecap:butt;stroke-linejoin:miter;stroke-miterlimit:4;stroke-opacity:1" d="m -3.5762787e-7,9.9576273 9.99999995762787,0 0,0.9999997 -9.99999995762787,0 z M 11,0 11,10 10,10 10,0 z M -3.7252903e-8,-0.95762712 10,-0.95762712 l 0,1 -10.000000037252901,0 z M -1,10 -1,0 0,0 0,10 z M 0,0 10,0 10,10 0,10 z" />
</g><g transform="translate( 72.41379310344828 72.41379310344828 ) rotate(270, 2.586206896551724, 2.586206896551724) scale(0.5172413793103449)"><ns0:path style="fill:#000000;fill-opacity:1;stroke:none" d="M -5e-8,-1 10,-1 10,3.26039 10,6.73961 C 10,8.545866 8.545866,10 6.7396099,10 L 3.26039,10 C 1.4541339,10 -5.0000001e-8,8.545866 -5.0000001e-8,6.73961 l 0,-3.47922 C -5.0000001e-8,1.454134 -5e-8,-1 -5e-8,-1 z" id="rect2984" ns1:connector-curvature="0" ns2:nodetypes="cccsssssc" />
</g><g transform="translate( 82.75862068965517 72.41379310344828 ) scale(0.5172413793103449)"><ns0:rect style="fill:#000000;fill-opacity:1;stroke:none" id="rect2984" width="10" height="10" x="-5.0000001e-08" y="0" ry="3.26039" />
</g><g transform="translate( 98.27586206896552 72.41379310344828 ) scale(0.5172413793103449)"><ns0:path style="fill:#000000;fill-opacity:1;stroke:none" d="M -5e-8,-1 10,-1 10,3.26039 10,6.73961 C 10,8.545866 8.545866,10 6.7396099,10 L 3.26039,10 C 1.4541339,10 -5.0000001e-8,8.545866 -5.0000001e-8,6.73961 l 0,-3.47922 C -5.0000001e-8,1.454134 -5e-8,-1 -5e-8,-1 z" id="rect2984" ns1:connector-curvature="0" ns2:nodetypes="cccsssssc" />
</g><g transform="translate( 108.62068965517241 72.41379310344828 ) rotate(180, 2.586206896551724, 2.586206896551724) scale(0.5172413793103449)"><ns0:path id="rect2985" style="fill:#000000;fill-opacity:1;stroke:none" d="M 1.1920929e-7,-1 10,-1 10,0 1.1920929e-7,0 z M -1,0 10,0 10,3.26039 10,6.73961 C 10,8.545866 8.545866,10 6.7396099,10 L 3.26039,10 -1,10 -1,3.26039 z" />
</g><g transform="translate( 113.79310344827586 72.41379310344828 ) rotate(270, 2.586206896551724, 2.586206896551724) scale(0.5172413793103449)"><ns0:path style="fill:#000000;fill-opacity:1;stroke:none" d="M -5e-8,-1 10,-1 10,3.26039 10,6.73961 C 10,8.545866 8.545866,10 6.7396099,10 L 3.26039,10 C 1.4541339,10 -5.0000001e-8,8.545866 -5.0000001e-8,6.73961 l 0,-3.47922 C -5.0000001e-8,1.454134 -5e-8,-1 -5e-8,-1 z" id="rect2984" ns1:connector-curvature="0" ns2:nodetypes="cccsssssc" />
</g><g transform="translate( 124.13793103448276 72.41379310344828 ) scale(0.5172413793103449)"><ns0:path id="rect3750-9" style="fill:#000000;fill-opacity:1;stroke:#000000;stroke-width:0;stroke-linecap:butt;stroke-linejoin:miter;stroke-miterlimit:4;stroke-opacity:1" d="m 0,9.9661016 10,0 0,1.0000004 -10,0 z M 3.394434e-7,-0.97457618 10,-0.97457618 l 0,1 -9.9999996605566,0 z M 0,0 10,0 10,10 0,10 z" />
</g><g transform="translate( 56.896551724137936 77.58620689655173 ) scale(0.5172413793103449)"><ns0:path style="fill:#000000;fill-opacity:1;stroke:none" d="M -5e-8,-1 10,-1 10,3.26039 10,6.73961 C 10,8.545866 8.545866,10 6.7396099,10 L 3.26039,10 C 1.4541339,10 -5.0000001e-8,8.545866 -5.0000001e-8,6.73961 l 0,-3.47922 C -5.0000001e-8,1.454134 -5e-8,-1 -5e-8,-1 z" id="rect2984" ns1:connector-curvature="0" ns2:nodetypes="cccsssssc" />
</g><g transform="translate( 67.24137931034483 77.58620689655173 ) scale(0.5172413793103449)"><ns0:path style="fill:#000000;fill-opacity:1;stroke:none" d="M -5e-8,-1 10,-1 10,3.26039 10,6.73961 C 10,8.545866 8.545866,10 6.7396099,10 L 3.26039,10 C 1.4541339,10 -5.0000001e-8,8.545866 -5.0000001e-8,6.73961 l 0,-3.47922 C -5.0000001e-8,1.454134 -5e-8,-1 -5e-8,-1 z" id="rect2984" ns1:connector-curvature="0" ns2:nodetypes="cccsssssc" />
</g><g transform="translate( 77.58620689655173 77.58620689655173 ) scale(0.5172413793103449)"><ns0:rect style="fill:#000000;fill-opacity:1;stroke:none" id="rect2984" width="10" height="10" x="-5.0000001e-08" y="0" ry="3.26039" />
</g><g transform="translate( 93.10344827586208 77.58620689655173 ) scale(0.5172413793103449)"><ns0:rect style="fill:#000000;fill-opacity:1;stroke:none" id="rect2984" width="10" height="10" x="-5.0000001e-08" y="0" ry="3.26039" />
</g><g transform="translate( 103.44827586206897 77.58620689655173 ) rotate(180, 2.586206896551724, 2.586206896551724) scale(0.5172413793103449)"><ns0:path id="rect2985" style="fill:#000000;fill-opacity:1;stroke:none" d="M 1.1920929e-7,-1 10,-1 10,0 1.1920929e-7,0 z M -1,0 10,0 10,3.26039 10,6.73961 C 10,8.545866 8.545866,10 6.7396099,10 L 3.26039,10 -1,10 -1,3.26039 z" />
</g><g transform="translate( 108.62068965517241 77.58620689655173 ) scale(0.5172413793103449)"><ns0:path id="rect2985" style="fill:#000000;fill-opacity:1;stroke:none" d="M 1.1920929e-7,-1 10,-1 10,0 1.1920929e-7,0 z M -1,0 10,0 10,3.26039 10,6.73961 C 10,8.545866 8.545866,10 6.7396099,10 L 3.26039,10 -1,10 -1,3.26039 z" />
</g><g transform="translate( 118.96551724137932 77.58620689655173 ) rotate(90, 2.586206896551724, 2.586206896551724) scale(0.5172413793103449)"><ns0:path style="fill:#000000;fill-opacity:1;stroke:none" d="M -5e-8,-1 10,-1 10,3.26039 10,6.73961 C 10,8.545866 8.545866,10 6.7396099,10 L 3.26039,10 C 1.4541339,10 -5.0000001e-8,8.545866 -5.0000001e-8,6.73961 l 0,-3.47922 C -5.0000001e-8,1.454134 -5e-8,-1 -5e-8,-1 z" id="rect2984" ns1:connector-curvature="0" ns2:nodetypes="cccsssssc" />
</g><g transform="translate( 124.13793103448276 77.58620689655173 ) scale(0.5172413793103449)"><ns0:path id="rect2985" style="fill:#000000;fill-opacity:1;stroke:none" d="M 1.1920929e-7,-1 10,-1 10,0 1.1920929e-7,0 z M -1,0 10,0 10,3.26039 10,6.73961 C 10,8.545866 8.545866,10 6.7396099,10 L 3.26039,10 -1,10 -1,3.26039 z" />
</g><g transform="translate( 31.03448275862069 82.75862068965517 ) rotate(90, 2.586206896551724, 2.586206896551724) scale(0.5172413793103449)"><ns0:path style="fill:#000000;fill-opacity:1;stroke:none" d="M -5e-8,-1 10,-1 10,3.26039 10,6.73961 C 10,8.545866 8.545866,10 6.7396099,10 L 3.26039,10 C 1.4541339,10 -5.0000001e-8,8.545866 -5.0000001e-8,6.73961 l 0,-3.47922 C -5.0000001e-8,1.454134 -5e-8,-1 -5e-8,-1 z" id="rect2984" ns1:connector-curvature="0" ns2:nodetypes="cccsssssc" />
</g><g transform="translate( 36.20689655172414 82.75862068965517 ) rotate(270, 2.586206896551724, 2.586206896551724) scale(0.5172413793103449)"><ns0:path style="fill:#000000;fill-opacity:1;stroke:none" d="M -5e-8,-1 10,-1 10,3.26039 10,6.73961 C 10,8.545866 8.545866,10 6.7396099,10 L 3.26039,10 C 1.4541339,10 -5.0000001e-8,8.545866 -5.0000001e-8,6.73961 l 0,-3.47922 C -5.0000001e-8,1.454134 -5e-8,-1 -5e-8,-1 z" id="rect2984" ns1:connector-curvature="0" ns2:nodetypes="cccsssssc" />
</g><g transform="translate( 51.724137931034484 82.75862068965517 ) scale(0.5172413793103449)"><ns0:rect style="fill:#000000;fill-opacity:1;stroke:none" id="rect2984" width="10" height="10" x="-5.0000001e-08" y="0" ry="3.26039" />
</g><g transform="translate( 62.06896551724138 82.75862068965517 ) rotate(180, 2.586206896551724, 2.586206896551724) scale(0.5172413793103449)"><ns0:path style="fill:#000000;fill-opacity:1;stroke:none" d="M -5e-8,-1 10,-1 10,3.26039 10,6.73961 C 10,8.545866 8.545866,10 6.7396099,10 L 3.26039,10 C 1.4541339,10 -5.0000001e-8,8.545866 -5.0000001e-8,6.73961 l 0,-3.47922 C -5.0000001e-8,1.454134 -5e-8,-1 -5e-8,-1 z" id="rect2984" ns1:connector-curvature="0" ns2:nodetypes="cccsssssc" />
</g><g transform="translate( 72.41379310344828 82.75862068965517 ) rotate(180, 2.586206896551724, 2.586206896551724) scale(0.5172413793103449)"><ns0:path style="fill:#000000;fill-opacity:1;stroke:none" d="M -5e-8,-1 10,-1 10,3.26039 10,6.73961 C 10,8.545866 8.545866,10 6.7396099,10 L 3.26039,10 C 1.4541339,10 -5.0000001e-8,8.545866 -5.0000001e-8,6.73961 l 0,-3.47922 C -5.0000001e-8,1.454134 -5e-8,-1 -5e-8,-1 z" id="rect2984" ns1:connector-curvature="0" ns2:nodetypes="cccsssssc" />
</g><g transform="translate( 82.75862068965517 82.75862068965517 ) rotate(90, 2.586206896551724, 2.586206896551724) scale(0.5172413793103449)"><ns0:path style="fill:#000000;fill-opacity:1;stroke:none" d="M -5e-8,-1 10,-1 10,3.26039 10,6.73961 C 10,8.545866 8.545866,10 6.7396099,10 L 3.26039,10 C 1.4541339,10 -5.0000001e-8,8.545866 -5.0000001e-8,6.73961 l 0,-3.47922 C -5.0000001e-8,1.454134 -5e-8,-1 -5e-8,-1 z" id="rect2984" ns1:connector-curvature="0" ns2:nodetypes="cccsssssc" />
</g><g transform="translate( 87.93103448275862 82.75862068965517 ) rotate(270, 2.586206896551724, 2.586206896551724) scale(0.5172413793103449)"><ns0:path style="fill:#000000;fill-opacity:1;stroke:none" d="M -5e-8,-1 10,-1 10,3.26039 10,6.73961 C 10,8.545866 8.545866,10 6.7396099,10 L 3.26039,10 C 1.4541339,10 -5.0000001e-8,8.545866 -5.0000001e-8,6.73961 l 0,-3.47922 C -5.0000001e-8,1.454134 -5e-8,-1 -5e-8,-1 z" id="rect2984" ns1:connector-curvature="0" ns2:nodetypes="cccsssssc" />
</g><g transform="translate( 98.27586206896552 82.75862068965517 ) rotate(90, 2.586206896551724, 2.586206896551724) scale(0.5172413793103449)"><ns0:path style="fill:#000000;fill-opacity:1;stroke:none" d="M -5e-8,-1 10,-1 10,3.26039 10,6.73961 C 10,8.545866 8.545866,10 6.7396099,10 L 3.26039,10 C 1.4541339,10 -5.0000001e-8,8.545866 -5.0000001e-8,6.73961 l 0,-3.47922 C -5.0000001e-8,1.454134 -5e-8,-1 -5e-8,-1 z" id="rect2984" ns1:connector-curvature="0" ns2:nodetypes="cccsssssc" />
</g><g transform="translate( 103.44827586206897 82.75862068965517 ) scale(0.5172413793103449)"><ns0:path id="rect2985" style="fill:#000000;fill-opacity:1;stroke:none" d="M 1.1920929e-7,-1 10,-1 10,0 1.1920929e-7,0 z M -1,0 10,0 10,3.26039 10,6.73961 C 10,8.545866 8.545866,10 6.7396099,10 L 3.26039,10 -1,10 -1,3.26039 z" />
</g><g transform="translate( 62.06896551724138 87.93103448275862 ) rotate(90, 2.586206896551724, 2.586206896551724) scale(0.5172413793103449)"><ns0:path id="rect2982-0-6" transform="matrix(0,1,-1,0,0,0)" style="fill:#000000;fill-opacity:1;stroke:#000000;stroke-width:0;stroke-linecap:butt;stroke-linejoin:miter;stroke-miterlimit:4;stroke-opacity:1" d="m 0,-11 10,0 0,1 -10,0 z M -0.95762712,3.7252903e-8 -0.95762712,-10 l 1,0 0,10.000000037252901 z M 10,1 0,1 0,0 10,0 z M 0,0 l 0,-10 10,0 0,10 z" />
</g><g transform="translate( 67.24137931034483 87.93103448275862 ) rotate(90, 2.586206896551724, 2.586206896551724) scale(0.5172413793103449)"><ns0:path id="rect3750-9" style="fill:#000000;fill-opacity:1;stroke:#000000;stroke-width:0;stroke-linecap:butt;stroke-linejoin:miter;stroke-miterlimit:4;stroke-opacity:1" d="m 0,9.9661016 10,0 0,1.0000004 -10,0 z M 3.394434e-7,-0.97457618 10,-0.97457618 l 0,1 -9.9999996605566,0 z M 0,0 10,0 10,10 0,10 z" />
</g><g transform="translate( 72.41379310344828 87.93103448275862 ) scale(0.5172413793103449)"><ns0:path id="rect2982" style="fill:#000000;fill-opacity:1;stroke:#000000;stroke-width:0;stroke-linecap:butt;stroke-linejoin:miter;stroke-miterlimit:4;stroke-opacity:1" d="m -3.5762787e-7,9.9576273 9.99999995762787,0 0,0.9999997 -9.99999995762787,0 z M 11,0 11,10 10,10 10,0 z M -3.7252903e-8,-0.95762712 10,-0.95762712 l 0,1 -10.000000037252901,0 z M -1,10 -1,0 0,0 0,10 z M 0,0 10,0 10,10 0,10 z" />
</g><g transform="translate( 77.58620689655173 87.93103448275862 ) rotate(270, 2.586206896551724, 2.586206896551724) scale(0.5172413793103449)"><ns0:path style="fill:#000000;fill-opacity:1;stroke:none" d="M -5e-8,-1 10,-1 10,3.26039 10,6.73961 C 10,8.545866 8.545866,10 6.7396099,10 L 3.26039,10 C 1.4541339,10 -5.0000001e-8,8.545866 -5.0000001e-8,6.73961 l 0,-3.47922 C -5.0000001e-8,1.454134 -5e-8,-1 -5e-8,-1 z" id="rect2984" ns1:connector-curvature="0" ns2:nodetypes="cccsssssc" />
</g><g transform="translate( 113.79310344827586 87.93103448275862 ) rotate(180, 2.586206896551724, 2.586206896551724) scale(0.5172413793103449)"><ns0:path style="fill:#000000;fill-opacity:1;stroke:none" d="M -5e-8,-1 10,-1 10,3.26039 10,6.73961 C 10,8.545866 8.545866,10 6.7396099,10 L 3.26039,10 C 1.4541339,10 -5.0000001e-8,8.545866 -5.0000001e-8,6.73961 l 0,-3.47922 C -5.0000001e-8,1.454134 -5e-8,-1 -5e-8,-1 z" id="rect2984" ns1:connector-curvature="0" ns2:nodetypes="cccsssssc" />
</g><g transform="translate( 20.689655172413794 93.10344827586208 ) scale(0.5172413793103449)"><ns0:path id="rect3011-7-9" style="fill:#000000;fill-opacity:1;stroke:#000000;stroke-width:0;stroke-miterlimit:4;stroke-opacity:1;stroke-dasharray:none" d="m 60,50.093748 10,0 0,10 -10,0 z m 0,-9.999998 10,0 0,9.999999 -10,0 z m -60,20 19.999999,10e-7 0,9.999999 -9.874999,0 c 0,0 -4.75,0.75 -7.75,-2.25 -3,-3 -2.375,-7.75 -2.375,-7.75 z m 19.999998,10e-7 10,0 0,9.999999 -10,0 z m 30.000004,0 0.190938,0 c 0,0 4.621122,0.409274 7.366198,-2.114278 C 60.234533,55.51814 60,50.34375 60,50.34375 l 10e-7,19.75 -9.999999,0 z m -20.000003,0 10.000001,0 0,9.999999 -10.000001,0 z m 10,0 10,0 0,9.999999 -10,0 z M 60,60.09375 l 10,10e-7 c 0,0 0.333657,5.091884 -2.28125,7.656249 C 64.947925,70.46727 60,70.09375 60,70.09375 z M 0,50.093748 l 10,0 c 0,0 -0.046052,5.167962 2.5,7.625002 2.669593,2.576262 7.5,2.375 7.5,2.375 l -10,0 -10,0 z m 0,-9.999998 10,0 0,9.999999 -10,0 z m 0,-10.000002 10,0 0,9.999999 -10,0 z m 0,-10.000001 10,3e-6 0,9.999997 -10,0 z m 0,-9.999997 10,0 0,10 -10,-1e-6 z M 2.276,2.5686238 C 5.1559502,-0.33068394 10,0.09375 10,0.09375 l 0,9.999999 -10,0 c 0,0 -0.31363978,-4.9180794 2.276,-7.5251252 z M 10,0.09375 l 9.999999,0 0,9.999999 1e-6,10e-7 c 0,0 -5.135076,-0.03067 -7.698223,2.572303 C 9.5804661,15.42965 10,20.09375 10,20.09375 z m 9.999998,0 10,0 0,9.999999 L 20,10.09375 z M 60,30.093748 l 10,0 0,9.999999 -10,0 z m 0,-10.000001 10,0 0,10 -10,0 z m 0,-9.999997 10,0 0,9.999999 -10,0 z m -9.999998,-10 9.999999,0 0,9.999999 -9.999999,0 z m -20.000003,0 10.000001,0 0,9.999999 -10.000001,0 z m 10,0 10,0 0,9.999999 -10,0 z m 20.000001,0 10,0 0,9.999999 -10,0 z" ns1:connector-curvature="0" ns2:nodetypes="ccccccccccccccsccccccccccsccccccccccccscccscccccscccccccccccccccccccccccsccssccccscccccccccccccccccccccccccccccccccccccccc" />
</g><g transform="translate( 62.06896551724138 93.10344827586208 ) scale(0.5172413793103449)"><ns0:path style="fill:#000000;fill-opacity:1;stroke:none" d="M -5e-8,-1 10,-1 10,3.26039 10,6.73961 C 10,8.545866 8.545866,10 6.7396099,10 L 3.26039,10 C 1.4541339,10 -5.0000001e-8,8.545866 -5.0000001e-8,6.73961 l 0,-3.47922 C -5.0000001e-8,1.454134 -5e-8,-1 -5e-8,-1 z" id="rect2984" ns1:connector-curvature="0" ns2:nodetypes="cccsssssc" />
</g><g transform="translate( 72.41379310344828 93.10344827586208 ) scale(0.5172413793103449)"><ns0:path id="rect3750-9" style="fill:#000000;fill-opacity:1;stroke:#000000;stroke-width:0;stroke-linecap:butt;stroke-linejoin:miter;stroke-miterlimit:4;stroke-opacity:1" d="m 0,9.9661016 10,0 0,1.0000004 -10,0 z M 3.394434e-7,-0.97457618 10,-0.97457618 l 0,1 -9.9999996605566,0 z M 0,0 10,0 10,10 0,10 z" />
</g><g transform="translate( 93.10344827586208 93.10344827586208 ) rotate(90, 2.586206896551724, 2.586206896551724) scale(0.5172413793103449)"><ns0:path style="fill:#000000;fill-opacity:1;stroke:none" d="M -5e-8,-1 10,-1 10,3.26039 10,6.73961 C 10,8.545866 8.545866,10 6.7396099,10 L 3.26039,10 C 1.4541339,10 -5.0000001e-8,8.545866 -5.0000001e-8,6.73961 l 0,-3.47922 C -5.0000001e-8,1.454134 -5e-8,-1 -5e-8,-1 z" id="rect2984" ns1:connector-curvature="0" ns2:nodetypes="cccsssssc" />
</g><g transform="translate( 98.27586206896552 93.10344827586208 ) rotate(180, 2.586206896551724, 2.586206896551724) scale(0.5172413793103449)"><ns0:path id="rect2982-0-6" transform="matrix(0,1,-1,0,0,0)" style="fill:#000000;fill-opacity:1;stroke:#000000;stroke-width:0;stroke-linecap:butt;stroke-linejoin:miter;stroke-miterlimit:4;stroke-opacity:1" d="m 0,-11 10,0 0,1 -10,0 z M -0.95762712,3.7252903e-8 -0.95762712,-10 l 1,0 0,10.000000037252901 z M 10,1 0,1 0,0 10,0 z M 0,0 l 0,-10 10,0 0,10 z" />
</g><g transform="translate( 103.44827586206897 93.10344827586208 ) rotate(90, 2.586206896551724, 2.586206896551724) scale(0.5172413793103449)"><ns0:path id="rect3750-9" style="fill:#000000;fill-opacity:1;stroke:#000000;stroke-width:0;stroke-linecap:butt;stroke-linejoin:miter;stroke-miterlimit:4;stroke-opacity:1" d="m 0,9.9661016 10,0 0,1.0000004 -10,0 z M 3.394434e-7,-0.97457618 10,-0.97457618 l 0,1 -9.9999996605566,0 z M 0,0 10,0 10,10 0,10 z" />
</g><g transform="translate( 108.62068965517241 93.10344827586208 ) rotate(90, 2.586206896551724, 2.586206896551724) scale(0.5172413793103449)"><ns0:path id="rect3750-9" style="fill:#000000;fill-opacity:1;stroke:#000000;stroke-width:0;stroke-linecap:butt;stroke-linejoin:miter;stroke-miterlimit:4;stroke-opacity:1" d="m 0,9.9661016 10,0 0,1.0000004 -10,0 z M 3.394434e-7,-0.97457618 10,-0.97457618 l 0,1 -9.9999996605566,0 z M 0,0 10,0 10,10 0,10 z" />
</g><g transform="translate( 113.79310344827586 93.10344827586208 ) scale(0.5172413793103449)"><ns0:path id="rect2982-0-6" transform="matrix(0,1,-1,0,0,0)" style="fill:#000000;fill-opacity:1;stroke:#000000;stroke-width:0;stroke-linecap:butt;stroke-linejoin:miter;stroke-miterlimit:4;stroke-opacity:1" d="m 0,-11 10,0 0,1 -10,0 z M -0.95762712,3.7252903e-8 -0.95762712,-10 l 1,0 0,10.000000037252901 z M 10,1 0,1 0,0 10,0 z M 0,0 l 0,-10 10,0 0,10 z" />
</g><g transform="translate( 118.96551724137932 93.10344827586208 ) rotate(270, 2.586206896551724, 2.586206896551724) scale(0.5172413793103449)"><ns0:path style="fill:#000000;fill-opacity:1;stroke:none" d="M -5e-8,-1 10,-1 10,3.26039 10,6.73961 C 10,8.545866 8.545866,10 6.7396099,10 L 3.26039,10 C 1.4541339,10 -5.0000001e-8,8.545866 -5.0000001e-8,6.73961 l 0,-3.47922 C -5.0000001e-8,1.454134 -5e-8,-1 -5e-8,-1 z" id="rect2984" ns1:connector-curvature="0" ns2:nodetypes="cccsssssc" />
</g><g transform="translate( 67.24137931034483 98.27586206896552 ) rotate(180, 2.586206896551724, 2.586206896551724) scale(0.5172413793103449)"><ns0:path id="rect2985" style="fill:#000000;fill-opacity:1;stroke:none" d="M 1.1920929e-7,-1 10,-1 10,0 1.1920929e-7,0 z M -1,0 10,0 10,3.26039 10,6.73961 C 10,8.545866 8.545866,10 6.7396099,10 L 3.26039,10 -1,10 -1,3.26039 z" />
</g><g transform="translate( 72.41379310344828 98.27586206896552 ) scale(0.5172413793103449)"><ns0:path id="rect2982" style="fill:#000000;fill-opacity:1;stroke:#000000;stroke-width:0;stroke-linecap:butt;stroke-linejoin:miter;stroke-miterlimit:4;stroke-opacity:1" d="m -3.5762787e-7,9.9576273 9.99999995762787,0 0,0.9999997 -9.99999995762787,0 z M 11,0 11,10 10,10 10,0 z M -3.7252903e-8,-0.95762712 10,-0.95762712 l 0,1 -10.000000037252901,0 z M -1,10 -1,0 0,0 0,10 z M 0,0 10,0 10,10 0,10 z" />
</g><g transform="translate( 77.58620689655173 98.27586206896552 ) rotate(180, 2.586206896551724, 2.586206896551724) scale(0.5172413793103449)"><ns0:path id="rect2982-0-6" transform="matrix(0,1,-1,0,0,0)" style="fill:#000000;fill-opacity:1;stroke:#000000;stroke-width:0;stroke-linecap:butt;stroke-linejoin:miter;stroke-miterlimit:4;stroke-opacity:1" d="m 0,-11 10,0 0,1 -10,0 z M -0.95762712,3.7252903e-8 -0.95762712,-10 l 1,0 0,10.000000037252901 z M 10,1 0,1 0,0 10,0 z M 0,0 l 0,-10 10,0 0,10 z" />
</g><g transform="translate( 82.75862068965517 98.27586206896552 ) rotate(270, 2.586206896551724, 2.586206896551724) scale(0.5172413793103449)"><ns0:path style="fill:#000000;fill-opacity:1;stroke:none" d="M -5e-8,-1 10,-1 10,3.26039 10,6.73961 C 10,8.545866 8.545866,10 6.7396099,10 L 3.26039,10 C 1.4541339,10 -5.0000001e-8,8.545866 -5.0000001e-8,6.73961 l 0,-3.47922 C -5.0000001e-8,1.454134 -5e-8,-1 -5e-8,-1 z" id="rect2984" ns1:connector-curvature="0" ns2:nodetypes="cccsssssc" />
</g><g transform="translate( 98.27586206896552 98.27586206896552 ) scale(0.5172413793103449)"><ns0:path style="fill:#000000;fill-opacity:1;stroke:none" d="M -5e-8,-1 10,-1 10,3.26039 10,6.73961 C 10,8.545866 8.545866,10 6.7396099,10 L 3.26039,10 C 1.4541339,10 -5.0000001e-8,8.545866 -5.0000001e-8,6.73961 l 0,-3.47922 C -5.0000001e-8,1.454134 -5e-8,-1 -5e-8,-1 z" id="rect2984" ns1:connector-curvature="0" ns2:nodetypes="cccsssssc" />
</g><g transform="translate( 124.13793103448276 98.27586206896552 ) scale(0.5172413793103449)"><ns0:rect style="fill:#000000;fill-opacity:1;stroke:none" id="rect2984" width="10" height="10" x="-5.0000001e-08" y="0" ry="3.26039" />
</g><g transform="translate( 31.03448275862069 103.44827586206897 ) scale(0.5172413793103449)"><ns0:path style="fill:#000000;fill-opacity:1;stroke:none" d="M 0.05249009,0 15,3 29.94751,0 C 29.976021,-0.00572216 30,0.02341058 30,0.05249009 L 27,15 30,29.94751 C 30.005722,29.97602 29.976589,30 29.94751,30 L 15,27 0.05249009,30 C 0.02397908,30.005722 0,29.976589 0,29.94751 L 3,15 0,0.05249009 C -0.00572221,0.02397915 0.02341058,0 0.05249009,0 z" id="rect2993" ns1:connector-curvature="0" ns2:nodetypes="scsscsscsscss" />
</g><g transform="translate( 67.24137931034483 103.44827586206897 ) rotate(90, 2.586206896551724, 2.586206896551724) scale(0.5172413793103449)"><ns0:path id="rect2985" style="fill:#000000;fill-opacity:1;stroke:none" d="M 1.1920929e-7,-1 10,-1 10,0 1.1920929e-7,0 z M -1,0 10,0 10,3.26039 10,6.73961 C 10,8.545866 8.545866,10 6.7396099,10 L 3.26039,10 -1,10 -1,3.26039 z" />
</g><g transform="translate( 72.41379310344828 103.44827586206897 ) scale(0.5172413793103449)"><ns0:path id="rect2982" style="fill:#000000;fill-opacity:1;stroke:#000000;stroke-width:0;stroke-linecap:butt;stroke-linejoin:miter;stroke-miterlimit:4;stroke-opacity:1" d="m -3.5762787e-7,9.9576273 9.99999995762787,0 0,0.9999997 -9.99999995762787,0 z M 11,0 11,10 10,10 10,0 z M -3.7252903e-8,-0.95762712 10,-0.95762712 l 0,1 -10.000000037252901,0 z M -1,10 -1,0 0,0 0,10 z M 0,0 10,0 10,10 0,10 z" />
</g><g transform="translate( 77.58620689655173 103.44827586206897 ) scale(0.5172413793103449)"><ns0:path id="rect2985" style="fill:#000000;fill-opacity:1;stroke:none" d="M 1.1920929e-7,-1 10,-1 10,0 1.1920929e-7,0 z M -1,0 10,0 10,3.26039 10,6.73961 C 10,8.545866 8.545866,10 6.7396099,10 L 3.26039,10 -1,10 -1,3.26039 z" />
</g><g transform="translate( 87.93103448275862 103.44827586206897 ) scale(0.5172413793103449)"><ns0:rect style="fill:#000000;fill-opacity:1;stroke:none" id="rect2984" width="10" height="10" x="-5.0000001e-08" y="0" ry="3.26039" />
</g><g transform="translate( 118.96551724137932 103.44827586206897 ) rotate(180, 2.586206896551724, 2.586206896551724) scale(0.5172413793103449)"><ns0:path style="fill:#000000;fill-opacity:1;stroke:none" d="M -5e-8,-1 10,-1 10,3.26039 10,6.73961 C 10,8.545866 8.545866,10 6.7396099,10 L 3.26039,10 C 1.4541339,10 -5.0000001e-8,8.545866 -5.0000001e-8,6.73961 l 0,-3.47922 C -5.0000001e-8,1.454134 -5e-8,-1 -5e-8,-1 z" id="rect2984" ns1:connector-curvature="0" ns2:nodetypes="cccsssssc" />
</g><g transform="translate( 62.06896551724138 108.62068965517241 ) scale(0.5172413793103449)"><ns0:rect style="fill:#000000;fill-opacity:1;stroke:none" id="rect2984" width="10" height="10" x="-5.0000001e-08" y="0" ry="3.26039" />
</g><g transform="translate( 72.41379310344828 108.62068965517241 ) scale(0.5172413793103449)"><ns0:path style="fill:#000000;fill-opacity:1;stroke:none" d="M -5e-8,-1 10,-1 10,3.26039 10,6.73961 C 10,8.545866 8.545866,10 6.7396099,10 L 3.26039,10 C 1.4541339,10 -5.0000001e-8,8.545866 -5.0000001e-8,6.73961 l 0,-3.47922 C -5.0000001e-8,1.454134 -5e-8,-1 -5e-8,-1 z" id="rect2984" ns1:connector-curvature="0" ns2:nodetypes="cccsssssc" />
</g><g transform="translate( 98.27586206896552 108.62068965517241 ) rotate(90, 2.586206896551724, 2.586206896551724) scale(0.5172413793103449)"><ns0:path style="fill:#000000;fill-opacity:1;stroke:none" d="M -5e-8,-1 10,-1 10,3.26039 10,6.73961 C 10,8.545866 8.545866,10 6.7396099,10 L 3.26039,10 C 1.4541339,10 -5.0000001e-8,8.545866 -5.0000001e-8,6.73961 l 0,-3.47922 C -5.0000001e-8,1.454134 -5e-8,-1 -5e-8,-1 z" id="rect2984" ns1:connector-curvature="0" ns2:nodetypes="cccsssssc" />
</g><g transform="translate( 103.44827586206897 108.62068965517241 ) rotate(180, 2.586206896551724, 2.586206896551724) scale(0.5172413793103449)"><ns0:path id="rect2982-0-6" transform="matrix(0,1,-1,0,0,0)" style="fill:#000000;fill-opacity:1;stroke:#000000;stroke-width:0;stroke-linecap:butt;stroke-linejoin:miter;stroke-miterlimit:4;stroke-opacity:1" d="m 0,-11 10,0 0,1 -10,0 z M -0.95762712,3.7252903e-8 -0.95762712,-10 l 1,0 0,10.000000037252901 z M 10,1 0,1 0,0 10,0 z M 0,0 l 0,-10 10,0 0,10 z" />
</g><g transform="translate( 108.62068965517241 108.62068965517241 ) rotate(90, 2.586206896551724, 2.586206896551724) scale(0.5172413793103449)"><ns0:path id="rect3750-9" style="fill:#000000;fill-opacity:1;stroke:#000000;stroke-width:0;stroke-linecap:butt;stroke-linejoin:miter;stroke-miterlimit:4;stroke-opacity:1" d="m 0,9.9661016 10,0 0,1.0000004 -10,0 z M 3.394434e-7,-0.97457618 10,-0.97457618 l 0,1 -9.9999996605566,0 z M 0,0 10,0 10,10 0,10 z" />
</g><g transform="translate( 113.79310344827586 108.62068965517241 ) rotate(180, 2.586206896551724, 2.586206896551724) scale(0.5172413793103449)"><ns0:path id="rect2982-0-6" transform="matrix(0,1,-1,0,0,0)" style="fill:#000000;fill-opacity:1;stroke:#000000;stroke-width:0;stroke-linecap:butt;stroke-linejoin:miter;stroke-miterlimit:4;stroke-opacity:1" d="m 0,-11 10,0 0,1 -10,0 z M -0.95762712,3.7252903e-8 -0.95762712,-10 l 1,0 0,10.000000037252901 z M 10,1 0,1 0,0 10,0 z M 0,0 l 0,-10 10,0 0,10 z" />
</g><g transform="translate( 118.96551724137932 108.62068965517241 ) scale(0.5172413793103449)"><ns0:path id="rect2982-0-6" transform="matrix(0,1,-1,0,0,0)" style="fill:#000000;fill-opacity:1;stroke:#000000;stroke-width:0;stroke-linecap:butt;stroke-linejoin:miter;stroke-miterlimit:4;stroke-opacity:1" d="m 0,-11 10,0 0,1 -10,0 z M -0.95762712,3.7252903e-8 -0.95762712,-10 l 1,0 0,10.000000037252901 z M 10,1 0,1 0,0 10,0 z M 0,0 l 0,-10 10,0 0,10 z" />
</g><g transform="translate( 124.13793103448276 108.62068965517241 ) rotate(270, 2.586206896551724, 2.586206896551724) scale(0.5172413793103449)"><ns0:path id="rect2985" style="fill:#000000;fill-opacity:1;stroke:none" d="M 1.1920929e-7,-1 10,-1 10,0 1.1920929e-7,0 z M -1,0 10,0 10,3.26039 10,6.73961 C 10,8.545866 8.545866,10 6.7396099,10 L 3.26039,10 -1,10 -1,3.26039 z" />
</g><g transform="translate( 67.24137931034483 113.79310344827586 ) rotate(180, 2.586206896551724, 2.586206896551724) scale(0.5172413793103449)"><ns0:path style="fill:#000000;fill-opacity:1;stroke:none" d="M -5e-8,-1 10,-1 10,3.26039 10,6.73961 C 10,8.545866 8.545866,10 6.7396099,10 L 3.26039,10 C 1.4541339,10 -5.0000001e-8,8.545866 -5.0000001e-8,6.73961 l 0,-3.47922 C -5.0000001e-8,1.454134 -5e-8,-1 -5e-8,-1 z" id="rect2984" ns1:connector-curvature="0" ns2:nodetypes="cccsssssc" />
</g><g transform="translate( 82.75862068965517 113.79310344827586 ) scale(0.5172413793103449)"><ns0:rect style="fill:#000000;fill-opacity:1;stroke:none" id="rect2984" width="10" height="10" x="-5.0000001e-08" y="0" ry="3.26039" />
</g><g transform="translate( 93.10344827586208 113.79310344827586 ) scale(0.5172413793103449)"><ns0:rect style="fill:#000000;fill-opacity:1;stroke:none" id="rect2984" width="10" height="10" x="-5.0000001e-08" y="0" ry="3.26039" />
</g><g transform="translate( 103.44827586206897 113.79310344827586 ) scale(0.5172413793103449)"><ns0:path style="fill:#000000;fill-opacity:1;stroke:none" d="M -5e-8,-1 10,-1 10,3.26039 10,6.73961 C 10,8.545866 8.545866,10 6.7396099,10 L 3.26039,10 C 1.4541339,10 -5.0000001e-8,8.545866 -5.0000001e-8,6.73961 l 0,-3.47922 C -5.0000001e-8,1.454134 -5e-8,-1 -5e-8,-1 z" id="rect2984" ns1:connector-curvature="0" ns2:nodetypes="cccsssssc" />
</g><g transform="translate( 113.79310344827586 113.79310344827586 ) scale(0.5172413793103449)"><ns0:path style="fill:#000000;fill-opacity:1;stroke:none" d="M -5e-8,-1 10,-1 10,3.26039 10,6.73961 C 10,8.545866 8.545866,10 6.7396099,10 L 3.26039,10 C 1.4541339,10 -5.0000001e-8,8.545866 -5.0000001e-8,6.73961 l 0,-3.47922 C -5.0000001e-8,1.454134 -5e-8,-1 -5e-8,-1 z" id="rect2984" ns1:connector-curvature="0" ns2:nodetypes="cccsssssc" />
</g><g transform="translate( 124.13793103448276 113.79310344827586 ) scale(0.5172413793103449)"><ns0:path style="fill:#000000;fill-opacity:1;stroke:none" d="M -5e-8,-1 10,-1 10,3.26039 10,6.73961 C 10,8.545866 8.545866,10 6.7396099,10 L 3.26039,10 C 1.4541339,10 -5.0000001e-8,8.545866 -5.0000001e-8,6.73961 l 0,-3.47922 C -5.0000001e-8,1.454134 -5e-8,-1 -5e-8,-1 z" id="rect2984" ns1:connector-curvature="0" ns2:nodetypes="cccsssssc" />
</g><g transform="translate( 62.06896551724138 118.96551724137932 ) rotate(180, 2.586206896551724, 2.586206896551724) scale(0.5172413793103449)"><ns0:path id="rect2985" style="fill:#000000;fill-opacity:1;stroke:none" d="M 1.1920929e-7,-1 10,-1 10,0 1.1920929e-7,0 z M -1,0 10,0 10,3.26039 10,6.73961 C 10,8.545866 8.545866,10 6.7396099,10 L 3.26039,10 -1,10 -1,3.26039 z" />
</g><g transform="translate( 67.24137931034483 118.96551724137932 ) rotate(270, 2.586206896551724, 2.586206896551724) scale(0.5172413793103449)"><ns0:path id="rect2982-0-6" transform="matrix(0,1,-1,0,0,0)" style="fill:#000000;fill-opacity:1;stroke:#000000;stroke-width:0;stroke-linecap:butt;stroke-linejoin:miter;stroke-miterlimit:4;stroke-opacity:1" d="m 0,-11 10,0 0,1 -10,0 z M -0.95762712,3.7252903e-8 -0.95762712,-10 l 1,0 0,10.000000037252901 z M 10,1 0,1 0,0 10,0 z M 0,0 l 0,-10 10,0 0,10 z" />
</g><g transform="translate( 77.58620689655173 118.96551724137932 ) scale(0.5172413793103449)"><ns0:rect style="fill:#000000;fill-opacity:1;stroke:none" id="rect2984" width="10" height="10" x="-5.0000001e-08" y="0" ry="3.26039" />
</g><g transform="translate( 87.93103448275862 118.96551724137932 ) scale(0.5172413793103449)"><ns0:rect style="fill:#000000;fill-opacity:1;stroke:none" id="rect2984" width="10" height="10" x="-5.0000001e-08" y="0" ry="3.26039" />
</g><g transform="translate( 62.06896551724138 124.13793103448276 ) rotate(90, 2.586206896551724, 2.586206896551724) scale(0.5172413793103449)"><ns0:path id="rect2985" style="fill:#000000;fill-opacity:1;stroke:none" d="M 1.1920929e-7,-1 10,-1 10,0 1.1920929e-7,0 z M -1,0 10,0 10,3.26039 10,6.73961 C 10,8.545866 8.545866,10 6.7396099,10 L 3.26039,10 -1,10 -1,3.26039 z" />
</g><g transform="translate( 67.24137931034483 124.13793103448276 ) scale(0.5172413793103449)"><ns0:path id="rect2982-0-6" transform="matrix(0,1,-1,0,0,0)" style="fill:#000000;fill-opacity:1;stroke:#000000;stroke-width:0;stroke-linecap:butt;stroke-linejoin:miter;stroke-miterlimit:4;stroke-opacity:1" d="m 0,-11 10,0 0,1 -10,0 z M -0.95762712,3.7252903e-8 -0.95762712,-10 l 1,0 0,10.000000037252901 z M 10,1 0,1 0,0 10,0 z M 0,0 l 0,-10 10,0 0,10 z" />
</g><g transform="translate( 72.41379310344828 124.13793103448276 ) rotate(270, 2.586206896551724, 2.586206896551724) scale(0.5172413793103449)"><ns0:path style="fill:#000000;fill-opacity:1;stroke:none" d="M -5e-8,-1 10,-1 10,3.26039 10,6.73961 C 10,8.545866 8.545866,10 6.7396099,10 L 3.26039,10 C 1.4541339,10 -5.0000001e-8,8.545866 -5.0000001e-8,6.73961 l 0,-3.47922 C -5.0000001e-8,1.454134 -5e-8,-1 -5e-8,-1 z" id="rect2984" ns1:connector-curvature="0" ns2:nodetypes="cccsssssc" />
</g><g transform="translate( 82.75862068965517 124.13793103448276 ) scale(0.5172413793103449)"><ns0:rect style="fill:#000000;fill-opacity:1;stroke:none" id="rect2984" width="10" height="10" x="-5.0000001e-08" y="0" ry="3.26039" />
</g><g transform="translate( 93.10344827586208 124.13793103448276 ) rotate(90, 2.586206896551724, 2.586206896551724) scale(0.5172413793103449)"><ns0:path style="fill:#000000;fill-opacity:1;stroke:none" d="M -5e-8,-1 10,-1 10,3.26039 10,6.73961 C 10,8.545866 8.545866,10 6.7396099,10 L 3.26039,10 C 1.4541339,10 -5.0000001e-8,8.545866 -5.0000001e-8,6.73961 l 0,-3.47922 C -5.0000001e-8,1.454134 -5e-8,-1 -5e-8,-1 z" id="rect2984" ns1:connector-curvature="0" ns2:nodetypes="cccsssssc" />
</g><g transform="translate( 98.27586206896552 124.13793103448276 ) rotate(270, 2.586206896551724, 2.586206896551724) scale(0.5172413793103449)"><ns0:path style="fill:#000000;fill-opacity:1;stroke:none" d="M -5e-8,-1 10,-1 10,3.26039 10,6.73961 C 10,8.545866 8.545866,10 6.7396099,10 L 3.26039,10 C 1.4541339,10 -5.0000001e-8,8.545866 -5.0000001e-8,6.73961 l 0,-3.47922 C -5.0000001e-8,1.454134 -5e-8,-1 -5e-8,-1 z" id="rect2984" ns1:connector-curvature="0" ns2:nodetypes="cccsssssc" />
</g><g transform="translate( 108.62068965517241 124.13793103448276 ) scale(0.5172413793103449)"><ns0:rect style="fill:#000000;fill-opacity:1;stroke:none" id="rect2984" width="10" height="10" x="-5.0000001e-08" y="0" ry="3.26039" />
</g><g transform="translate( 118.96551724137932 124.13793103448276 ) scale(0.5172413793103449)"><ns0:rect style="fill:#000000;fill-opacity:1;stroke:none" id="rect2984" width="10" height="10" x="-5.0000001e-08" y="0" ry="3.26039" />
</g></svg>